<svg width="96" height="24" viewBox="0 0 96 24" fill="none" xmlns="http://www.w3.org/2000/svg">
<path d="M6 21L0 3H12.5L6 21Z" fill="#23272E"/>
<path d="M30.244 20.22C29.452 20.22 28.6783 20.121 27.923 19.923C27.1677 19.725 26.4783 19.428 25.855 19.032C25.2317 18.636 24.7183 18.141 24.315 17.547C23.919 16.953 23.6807 16.2563 23.6 15.457H26.889C26.999 15.941 27.208 16.348 27.516 16.678C27.8313 17.008 28.2347 17.261 28.726 17.437C29.2247 17.613 29.793 17.701 30.431 17.701C30.937 17.701 31.4173 17.6277 31.872 17.481C32.3267 17.3343 32.697 17.1107 32.983 16.81C33.269 16.5093 33.412 16.1317 33.412 15.677C33.412 15.1343 33.214 14.7273 32.818 14.456C32.422 14.1773 31.883 13.9573 31.201 13.796L28.22 13.147C27.3767 12.971 26.6397 12.6997 26.009 12.333C25.3857 11.959 24.9053 11.475 24.568 10.881C24.2307 10.2797 24.062 9.55 24.062 8.692C24.062 7.702 24.3333 6.84767 24.876 6.129C25.426 5.41033 26.1703 4.86033 27.109 4.479C28.055 4.09033 29.1147 3.896 30.288 3.896C31.6153 3.896 32.7337 4.11233 33.643 4.545C34.5597 4.97033 35.26 5.54967 35.744 6.283C36.228 7.009 36.4737 7.81933 36.481 8.714H33.269C33.2103 8.164 33.0417 7.724 32.763 7.394C32.4843 7.05667 32.125 6.81467 31.685 6.668C31.2523 6.514 30.7573 6.437 30.2 6.437C29.2393 6.437 28.539 6.63133 28.099 7.02C27.659 7.40867 27.439 7.85967 27.439 8.373C27.439 8.857 27.604 9.24933 27.934 9.55C28.2713 9.84333 28.8103 10.067 29.551 10.221L32.312 10.815C33.3387 11.013 34.171 11.3283 34.809 11.761C35.447 12.1863 35.9127 12.7033 36.206 13.312C36.4993 13.9207 36.646 14.6027 36.646 15.358C36.646 16.3187 36.371 17.1657 35.821 17.899C35.2783 18.625 34.5267 19.1933 33.566 19.604C32.6053 20.0147 31.498 20.22 30.244 20.22ZM44.2035 20.22C43.0742 20.22 42.0805 19.9853 41.2225 19.516C40.3718 19.0393 39.7082 18.3683 39.2315 17.503C38.7548 16.6377 38.5165 15.6183 38.5165 14.445C38.5165 13.3083 38.7328 12.2853 39.1655 11.376C39.6055 10.4593 40.2362 9.737 41.0575 9.209C41.8788 8.67367 42.8725 8.406 44.0385 8.406C45.1972 8.406 46.1688 8.65167 46.9535 9.143C47.7382 9.627 48.3322 10.3053 48.7355 11.178C49.1388 12.0433 49.3405 13.0443 49.3405 14.181V15.05H41.6955C41.6955 15.6293 41.7908 16.1353 41.9815 16.568C42.1722 16.9933 42.4472 17.3233 42.8065 17.558C43.1732 17.7853 43.6132 17.899 44.1265 17.899C44.6765 17.899 45.1568 17.7817 45.5675 17.547C45.9782 17.3123 46.2678 16.9273 46.4365 16.392H49.3295C49.1975 17.1987 48.8748 17.888 48.3615 18.46C47.8482 19.032 47.2248 19.4683 46.4915 19.769C45.7582 20.0697 44.9955 20.22 44.2035 20.22ZM41.6955 13.136H46.3375C46.3375 12.6813 46.2495 12.2633 46.0735 11.882C45.9048 11.5007 45.6482 11.2 45.3035 10.98C44.9662 10.76 44.5408 10.65 44.0275 10.65C43.5362 10.65 43.1145 10.771 42.7625 11.013C42.4178 11.2477 42.1502 11.5557 41.9595 11.937C41.7762 12.3183 41.6882 12.718 41.6955 13.136ZM54.5005 20L50.2325 8.626H53.1365L55.6225 15.875H55.7105L58.1635 8.626H61.1005L56.8325 20H54.5005ZM67.643 20.22C66.5136 20.22 65.52 19.9853 64.662 19.516C63.8113 19.0393 63.1476 18.3683 62.671 17.503C62.1943 16.6377 61.956 15.6183 61.956 14.445C61.956 13.3083 62.1723 12.2853 62.605 11.376C63.045 10.4593 63.6756 9.737 64.497 9.209C65.3183 8.67367 66.312 8.406 67.478 8.406C68.6366 8.406 69.6083 8.65167 70.393 9.143C71.1776 9.627 71.7716 10.3053 72.175 11.178C72.5783 12.0433 72.78 13.0443 72.78 14.181V15.05H65.135C65.135 15.6293 65.2303 16.1353 65.421 16.568C65.6116 16.9933 65.8866 17.3233 66.246 17.558C66.6126 17.7853 67.0526 17.899 67.566 17.899C68.116 17.899 68.5963 17.7817 69.007 17.547C69.4176 17.3123 69.7073 16.9273 69.876 16.392H72.769C72.637 17.1987 72.3143 17.888 71.801 18.46C71.2876 19.032 70.6643 19.4683 69.931 19.769C69.1976 20.0697 68.435 20.22 67.643 20.22ZM65.135 13.136H69.777C69.777 12.6813 69.689 12.2633 69.513 11.882C69.3443 11.5007 69.0876 11.2 68.743 10.98C68.4056 10.76 67.9803 10.65 67.467 10.65C66.9756 10.65 66.554 10.771 66.202 11.013C65.8573 11.2477 65.5896 11.5557 65.399 11.937C65.2156 12.3183 65.1276 12.718 65.135 13.136ZM75.0938 20V8.626H78.1848V11.321C78.3681 10.7417 78.6248 10.2357 78.9548 9.803C79.2921 9.363 79.6991 9.022 80.1758 8.78C80.6524 8.53067 81.1914 8.406 81.7928 8.406C81.8954 8.406 81.9908 8.41333 82.0788 8.428C82.1741 8.43533 82.2438 8.45 82.2878 8.472V11.53C82.2218 11.5007 82.1411 11.4823 82.0458 11.475C81.9578 11.4677 81.8771 11.4603 81.8038 11.453C81.1731 11.4017 80.6341 11.42 80.1867 11.508C79.7394 11.596 79.3764 11.7463 79.0978 11.959C78.8191 12.1717 78.6174 12.432 78.4928 12.74C78.3681 13.048 78.3058 13.3927 78.3058 13.774V20H75.0938ZM87.2793 20.22C86.5607 20.22 85.908 20.0843 85.3213 19.813C84.742 19.5417 84.2837 19.1493 83.9463 18.636C83.609 18.1153 83.4403 17.4847 83.4403 16.744C83.4403 15.4973 83.906 14.5513 84.8373 13.906C85.7687 13.2533 87.239 12.916 89.2483 12.894L90.6783 12.872V12.19C90.6783 11.6693 90.5243 11.2697 90.2163 10.991C89.9157 10.705 89.4427 10.5657 88.7973 10.573C88.3353 10.5803 87.8917 10.6903 87.4663 10.903C87.0483 11.1157 86.7587 11.486 86.5973 12.014H83.9243C83.9683 11.1927 84.2067 10.518 84.6393 9.99C85.0793 9.45467 85.6697 9.05867 86.4103 8.802C87.151 8.538 87.998 8.406 88.9513 8.406C90.11 8.406 91.0413 8.55267 91.7453 8.846C92.4493 9.132 92.959 9.54633 93.2743 10.089C93.597 10.6243 93.7583 11.2623 93.7583 12.003V20H91.0743L90.8103 18.042C90.4217 18.8633 89.934 19.4317 89.3473 19.747C88.768 20.0623 88.0787 20.22 87.2793 20.22ZM88.3683 18.108C88.6543 18.108 88.933 18.0567 89.2043 17.954C89.483 17.844 89.7323 17.701 89.9523 17.525C90.1723 17.3417 90.3447 17.1363 90.4693 16.909C90.6013 16.6817 90.671 16.447 90.6783 16.205V14.522L89.5233 14.544C88.988 14.5513 88.4893 14.6173 88.0273 14.742C87.5653 14.8593 87.1913 15.0537 86.9053 15.325C86.6267 15.5963 86.4873 15.963 86.4873 16.425C86.4873 16.953 86.667 17.3673 87.0263 17.668C87.393 17.9613 87.8403 18.108 88.3683 18.108Z" fill="#23272E"/>
</svg>
