<svg xmlns="http://www.w3.org/2000/svg" viewBox="0 0 175.216 175.552">
  <defs>
    <linearGradient id="messengerGradient" x1="0%" y1="0%" x2="100%" y2="100%">
      <stop offset="0%" style="stop-color:#00B2FF"/>
      <stop offset="100%" style="stop-color:#006AFF"/>
    </linearGradient>
  </defs>
  <path fill="url(#messengerGradient)" d="M87.608 0C38.525 0 0 36.525 0 85.608c0 26.958 11.892 51.058 30.925 67.275.942.75 1.5 1.892 1.475 3.108l-.3 19.292c-.1 6.242 6.292 10.792 12.175 8.692l21.525-7.675c.967-.35 2.017-.425 3.025-.217 6.075 1.275 12.392 1.942 18.783 1.942 49.083 0 87.608-36.525 87.608-85.608C175.216 36.525 136.691 0 87.608 0z"/>
  <path fill="#FFFFFF" d="M19.133 109.725l28.917-45.75c4.592-7.25 14.45-9.133 21.817-4.175l23.492 15.867c2.2 1.492 5.108 1.492 7.308 0l31.692-21.383c4.183-2.825 9.75 1.692 7.817 6.342l-28.917 45.75c-4.592 7.25-14.45 9.133-21.817 4.175l-23.492-15.867c-2.2-1.492-5.108-1.492-7.308 0l-31.692 21.383c-4.183 2.825-9.75-1.692-7.817-6.342z"/>
</svg>
